PathFileType	3	(X/Y/Z)	D:\Jess\Healthy\Labelled\HA03\20250325\SRRun01.trc
DataRate	CameraRate	NumFrames	NumMarkers	Units	OrigDataRate	OrigDataStartFrame	OrigNumFrames
250.0	250.0	4	33	mm	250.0	37188	2501
Frame#	Time	C7			T10			CLAV			LSHO			RSHO			LASIS			RASIS			LPSIS			RPSIS			LILCR			RILCR			LGTR			LTHI			LLTHI			LLEP			LPSH			LLSH			LDSH			LLMAL			LTOE			L5TH			LHEE			RGTR			RTHI			RLTHI			RLEP			RPSH			RLSH			RDSH			RLMAL			RTOE			R5TH			RHEE			
		X1	Y1	Z1	X2	Y2	Z2	X3	Y3	Z3	X4	Y4	Z4	X5	Y5	Z5	X6	Y6	Z6	X7	Y7	Z7	X8	Y8	Z8	X9	Y9	Z9	X10	Y10	Z10	X11	Y11	Z11	X12	Y12	Z12	X13	Y13	Z13	X14	Y14	Z14	X15	Y15	Z15	X16	Y16	Z16	X17	Y17	Z17	X18	Y18	Z18	X19	Y19	Z19	X20	Y20	Z20	X21	Y21	Z21	X22	Y22	Z22	X23	Y23	Z23	X24	Y24	Z24	X25	Y25	Z25	X26	Y26	Z26	X27	Y27	Z27	X28	Y28	Z28	X29	Y29	Z29	X30	Y30	Z30	X31	Y31	Z31	X32	Y32	Z32	X33	Y33	Z33	

2189	148.748	827.1122724259453	1466.134027812634	-313.9283382696779	746.2049743922095	1214.961938794568	-306.5540818766885	952.0742693681257	1374.729541874709	-273.0924465587441	925.6595934315555	1436.985341639637	-447.4059920716194	848.2640780735373	1457.322552344396	-150.8406718936424	868.9038551829899	1011.183690313037	-385.5401678736592	868.0266706408869	1019.306687206946	-203.8249609188791	708.6701203209136	1072.274052802047	-320.6082357312071	706.5744576018892	1070.661520765771	-272.6847148162335	824.9145579989262	1055.771528972291	-431.0036866370729	802.0375537380104	1057.936644618781	-149.7873661090011	836.5621640256128	935.3111880723153	-443.6678904709983	830.217417562536	721.2778659154231	-383.5646320375889	730.5057916737071	675.9331296732785	-432.8923019690002	668.3096048931603	534.8652040999707	-406.4535208633644	663.2415600660826	412.1142263860689	-353.1122545205557	543.3865912982382	339.9874734328442	-397.852056470698	557.2384661647213	247.1884029379948	-342.5158100434128	457.8347764716652	174.1368652219176	-367.7529622356956	565.0559694121013	57.33042193479389	-326.0886965326966	528.170497139448	56.8201831708495	-370.1345345107341	389.2187022536421	192.5905653219733	-319.4916472999914	794.3984699096723	961.693990911844	-125.647949533098	987.6564579615233	805.316596917344	-212.2794853889969	1004.276785091785	697.3847094205184	-140.5366071629882	1033.745475102002	593.8581871720842	-157.3266219615604	1016.351669435965	470.4386724559362	-212.8513715636669	904.2721660850159	411.2565990589626	-151.2236968302568	876.0625019193982	294.9761925054527	-208.4642386996985	788.965419431941	254.0378026769369	-181.0080310606408	879.7306414381915	123.8472476488785	-201.3858777194853	825.8060376945222	125.6998355153778	-165.9497568176807	716.3369144026065	277.637819388424	-226.9063113611222	
2190	148.752	827.6286905292812	1469.242850487155	-313.7900669486501	747.4072826357233	1218.123165123584	-307.5890001932273	952.4097959038063	1378.392228024774	-272.1241003639802	927.0811637333461	1440.646924181372	-446.4537031758534	847.673129654492	1460.694378070477	-150.8312291783009	870.4387529072983	1013.296710955905	-385.2379632644798	868.546971264302	1022.605615029979	-203.7759625033075	710.3708132264308	1075.83477047553	-321.8927039875732	707.9551426465842	1074.398797373658	-273.9434598284207	827.6480804505983	1058.69961875108	-430.9546898643447	802.4205394666443	1061.74776150801	-150.3330001457878	837.9037943279958	937.0922639327243	-443.4694305558835	828.093180931665	723.1972285806671	-382.8197181056513	727.7377215114902	679.2991245468808	-432.6537555424258	663.16306137883	539.2674264749797	-406.3628203456025	657.3586415580002	416.5439023563628	-353.1922205024408	537.6771104112717	344.605359344374	-398.4252176021864	551.7856003841879	251.347916781447	-343.4439858719223	452.6218163290156	178.3673587229013	-368.7611401948475	556.2507764927227	57.9807131831939	-326.5066647482969	519.2999910434002	58.2435041001307	-370.402121455212	384.9937704816091	199.1508828194177	-320.5947459927928	794.3377473356134	965.7289245255594	-125.7751606367855	987.7138708120699	808.663913581826	-212.181117305709	1003.342039355655	700.2557922187033	-140.9337172078618	1032.58333669604	596.5071403102003	-157.5715688938249	1018.947787610935	472.1035097268663	-212.9658780919804	908.6607153910344	408.7813564136466	-152.2593152405934	885.3131633673107	291.4648244736799	-209.6195507710991	799.4811190668503	247.2468311242488	-183.0315386245434	895.5230800780962	120.7743870180899	-202.5252234222406	841.1706555500854	120.4526192679453	-167.6997523014184	726.4537192271208	267.9735492590714	-229.6643383079366	
2191	148.756	828.1333584899039	1472.238689939353	-313.6594429282102	748.6092312015973	1221.186927916141	-308.5813428758908	952.7331952116349	1381.94350725134	-271.1940680773684	928.4445097558013	1444.206202640939	-445.5252545380002	847.1106021912273	1463.94929957698	-150.8400909819087	871.9524454509873	1015.328641246009	-384.9008199305449	869.0731587431366	1025.771421813726	-203.6986314547615	712.0733587274323	1079.302501847181	-323.1229885883296	709.3591501979345	1078.035997885627	-275.15114947097	830.3291674126986	1061.491811884082	-430.8705393975749	802.8402519351012	1065.433211546989	-150.8389787063625	839.2546369276574	938.8057065947814	-443.2501022173061	826.0897077200025	725.102330359776	-382.1061593940886	725.167733698308	682.600432559491	-432.4727911753529	658.3384692113244	543.5964864491176	-406.3250621414292	651.7973714240348	420.9123739636526	-353.2883260745182	532.3037412585766	349.1617348608297	-399.0451642370562	546.5964910946105	255.4808339296129	-344.3625712959461	447.6952464458879	182.6264316299313	-369.8112430095544	547.5908468783028	58.83089616137691	-326.9559345039752	510.5855755054424	59.83523634534465	-370.674300649725	381.1107749518329	205.7725065452745	-321.7821678362084	794.2752852666356	969.608642737537	-125.8938495803794	987.7819585985668	811.7458563629041	-212.0573599996968	1002.168993649798	702.7999759783654	-141.3809876542302	1031.140240630501	598.8002462259512	-157.86694642523	1021.285184405661	473.5502652528745	-213.1163607993946	912.959938205575	406.1408477989006	-153.3061043260758	894.5177740204008	287.9813690342109	-210.7614923833943	810.1095330058998	240.5261454044322	-185.0102609853114	911.2931435961223	118.0308352688508	-203.6578932123073	856.6410335660794	115.5111727659321	-169.402116834212	736.7776345321574	258.346418499939	-232.3215336164172	
2192	148.76	828.624328610815	1475.108794756145	-313.5378547637563	749.8033743704329	1224.13852042116	-309.523018445741	953.0443583646826	1385.369221055445	-270.3036704529421	929.7469529182968	1447.650629267599	-444.6239291039086	846.5741177463914	1467.074356351977	-150.8662506990196	873.4343363659883	1017.279312684428	-384.5402443346021	869.6016815377919	1028.785890205545	-203.6035644654316	713.7637108598873	1082.659033843777	-324.2855850473581	710.7748973912296	1081.552240500766	-276.2942429521004	832.9337032539581	1064.144713064579	-430.7542739570373	803.2973869770685	1068.966880723986	-151.3007239391394	840.601702644238	940.4584257759044	-443.0189312760926	824.2081402035049	726.9930332594478	-381.4278380016791	722.7976638518354	685.8283618685136	-432.3493211213392	653.8448654286383	547.8342896931716	-406.3377604543966	646.5613691184662	425.1973499759057	-353.3966249219621	527.2625205832071	353.6434457735031	-399.7075571799255	541.6527036092059	259.5741179842273	-345.2640812480702	443.027872669018	186.9065327787638	-370.8994261391443	539.0645719861357	59.89122163735679	-327.4323512708907	502.0130130694393	61.60162328252203	-370.9475496637933	377.5411614256669	212.4321104363646	-323.0507879534439	794.2260467215806	973.3090548139927	-126.0057167944431	987.8608688019123	814.540052798396	-211.9153507952529	1000.76433505351	705.0054899754102	-141.8776464592367	1029.427239720366	600.7282471230011	-158.2150634826753	1023.36294132024	474.776853406412	-213.3048226854862	917.1623534993015	403.3478801895468	-154.3607623602577	903.6543566155916	284.5425907412711	-211.8868072388287	820.8292263536773	233.8998573359628	-186.9339529134475	927.003118075013	115.6357231710439	-204.7935272378659	872.1850866540238	110.8980817575955	-171.0586464951452	747.2832301895853	248.7877516785593	-234.8542536610048	
